HIERARCHY
ROOT Hips
{
	OFFSET 0.000000 71.427986 0.000000
	CHANNELS 6 Xposition Yposition Zposition Xrotation Yrotation Zrotation
	JOINT Pelvis
	{
		OFFSET 0.000000 0.000000 0.000000
		CHANNELS 3 Xrotation Yrotation Zrotation
		JOINT LeftUpLeg
		{
			OFFSET 6.797100 -2.508499 -1.318700
			CHANNELS 3 Xrotation Yrotation Zrotation
			JOINT LeftLeg
			{
				OFFSET 0.069008 -29.241863 0.690200
				CHANNELS 3 Xrotation Yrotation Zrotation
				JOINT LeftFoot
				{
					OFFSET -0.069008 -29.568123 -0.266800
					CHANNELS 3 Xrotation Yrotation Zrotation
					JOINT LeftToeBase
					{
						OFFSET 3.145500 -8.631000 16.059900
						CHANNELS 3 Xrotation Yrotation Zrotation
						End Site
						{
							OFFSET 0.000000 18.501587 0.000000
						}
					}
				}
			}
			JOINT Left_ShortSleeve
			{
				OFFSET 0.265923 -10.480953 1.153800
				CHANNELS 3 Xrotation Yrotation Zrotation
				End Site
				{
					OFFSET 1.725763 19.823879 0.000000
				}
			}
		}
		JOINT RightUpLeg
		{
			OFFSET -6.797100 -2.508499 -1.318700
			CHANNELS 3 Xrotation Yrotation Zrotation
			JOINT RightLeg
			{
				OFFSET -0.082453 -29.241932 0.688000
				CHANNELS 3 Xrotation Yrotation Zrotation
				JOINT RightFoot
				{
					OFFSET 0.082453 -29.568058 -0.264600
					CHANNELS 3 Xrotation Yrotation Zrotation
					JOINT RightToeBase
					{
						OFFSET -3.115300 -8.682800 16.113400
						CHANNELS 3 Xrotation Yrotation Zrotation
						End Site
						{
							OFFSET 0.000000 18.567114 0.000000
						}
					}
				}
			}
			JOINT Right_ShortSleeve
			{
				OFFSET -0.265923 -10.480953 1.153800
				CHANNELS 3 Xrotation Yrotation Zrotation
				End Site
				{
					OFFSET -1.725766 19.823910 0.000000
				}
			}
		}
	}
	JOINT Spine
	{
		OFFSET 0.000000 13.368103 0.470500
		CHANNELS 3 Xrotation Yrotation Zrotation
		JOINT Spine1
		{
			OFFSET 0.147000 13.837402 0.538800
			CHANNELS 3 Xrotation Yrotation Zrotation
			JOINT Spine2
			{
				OFFSET 0.168000 16.242897 -1.435500
				CHANNELS 3 Xrotation Yrotation Zrotation
				JOINT Neck
				{
					OFFSET 0.217200 18.631500 -1.679100
					CHANNELS 3 Xrotation Yrotation Zrotation
					JOINT Head
					{
						OFFSET 0.000000 6.599396 1.385900
						CHANNELS 3 Xrotation Yrotation Zrotation
						JOINT Hat
						{
							OFFSET -0.532200 27.220596 -10.096100
							CHANNELS 3 Xrotation Yrotation Zrotation
							End Site
							{
								OFFSET 0.000000 22.029861 0.000000
							}
						}
						JOINT HairD
						{
							OFFSET -10.777400 17.437393 -1.325900
							CHANNELS 3 Xrotation Yrotation Zrotation
							JOINT HairD1
							{
								OFFSET -3.290299 -11.051193 1.062200
								CHANNELS 3 Xrotation Yrotation Zrotation
								End Site
								{
									OFFSET 0.000000 11.579437 0.000000
								}
							}
						}
						JOINT HairB
						{
							OFFSET -10.777400 17.437393 1.467900
							CHANNELS 3 Xrotation Yrotation Zrotation
							JOINT HairB1
							{
								OFFSET -1.561200 -12.956299 3.590200
								CHANNELS 3 Xrotation Yrotation Zrotation
								End Site
								{
									OFFSET 0.000000 13.534866 0.000000
								}
							}
						}
						JOINT HairA
						{
							OFFSET 9.713100 17.437393 1.467900
							CHANNELS 3 Xrotation Yrotation Zrotation
							JOINT HairA1
							{
								OFFSET 1.561200 -12.956299 3.590200
								CHANNELS 3 Xrotation Yrotation Zrotation
								End Site
								{
									OFFSET 0.000000 13.534866 0.000000
								}
							}
						}
						JOINT HairC
						{
							OFFSET 9.713100 17.437393 -1.325900
							CHANNELS 3 Xrotation Yrotation Zrotation
							JOINT HairC1
							{
								OFFSET 3.290300 -11.051193 1.062200
								CHANNELS 3 Xrotation Yrotation Zrotation
								End Site
								{
									OFFSET 0.000000 11.579437 0.000000
								}
							}
						}
					}
				}
				JOINT LeftShoulder
				{
					OFFSET 5.101800 15.108002 -2.763700
					CHANNELS 3 Xrotation Yrotation Zrotation
					JOINT LeftArm
					{
						OFFSET 9.825497 2.506317 -1.597400
						CHANNELS 3 Xrotation Yrotation Zrotation
						JOINT LeftForeArm
						{
							OFFSET 21.966244 0.000000 0.000000
							CHANNELS 3 Xrotation Yrotation Zrotation
							JOINT LeftHand
							{
								OFFSET 33.879036 0.000000 0.000000
								CHANNELS 3 Xrotation Yrotation Zrotation
								JOINT LeftHandThumb1
								{
									OFFSET 6.715286 -2.359680 3.363841
									CHANNELS 3 Xrotation Yrotation Zrotation
									JOINT LeftHandThumb2
									{
										OFFSET 2.507072 -1.447464 1.447461
										CHANNELS 3 Xrotation Yrotation Zrotation
										JOINT LeftHandThumb3
										{
											OFFSET 2.898338 -1.673355 1.673357
											CHANNELS 3 Xrotation Yrotation Zrotation
											End Site
											{
												OFFSET -0.295959 3.727692 -0.131651
											}
										}
									}
								}
								JOINT LeftHandIndex1
								{
									OFFSET 14.190811 -0.254547 3.840278
									CHANNELS 3 Xrotation Yrotation Zrotation
									JOINT LeftHandIndex2
									{
										OFFSET 3.551727 0.000000 -0.000000
										CHANNELS 3 Xrotation Yrotation Zrotation
										JOINT LeftHandIndex3
										{
											OFFSET 2.894196 0.000000 0.000000
											CHANNELS 3 Xrotation Yrotation Zrotation
											End Site
											{
												OFFSET -1.000603 2.690872 0.366626
											}
										}
									}
								}
								JOINT LeftHandMiddle1
								{
									OFFSET 13.776489 0.000000 0.000000
									CHANNELS 3 Xrotation Yrotation Zrotation
									JOINT LeftHandMiddle2
									{
										OFFSET 3.438232 0.000000 0.000000
										CHANNELS 3 Xrotation Yrotation Zrotation
										JOINT LeftHandMiddle3
										{
											OFFSET 3.691551 0.000000 0.000000
											CHANNELS 3 Xrotation Yrotation Zrotation
											End Site
											{
												OFFSET -1.082298 3.499527 0.457670
											}
										}
									}
								}
								JOINT LeftHandRing1
								{
									OFFSET 13.966164 -0.268127 -3.067488
									CHANNELS 3 Xrotation Yrotation Zrotation
									JOINT LeftHandRing2
									{
										OFFSET 3.162567 0.000000 0.000000
										CHANNELS 3 Xrotation Yrotation Zrotation
										JOINT LeftHandRing3
										{
											OFFSET 3.324348 0.000000 0.000000
											CHANNELS 3 Xrotation Yrotation Zrotation
											End Site
											{
												OFFSET -0.861900 3.184998 0.405154
											}
										}
									}
								}
								JOINT LeftHandPinky1
								{
									OFFSET 13.131393 -0.168503 -5.746925
									CHANNELS 3 Xrotation Yrotation Zrotation
									JOINT LeftHandPinky2
									{
										OFFSET 2.849182 0.000000 0.000000
										CHANNELS 3 Xrotation Yrotation Zrotation
										JOINT LeftHandPinky3
										{
											OFFSET 2.805038 0.000000 0.000000
											CHANNELS 3 Xrotation Yrotation Zrotation
											End Site
											{
												OFFSET -0.882500 2.642609 0.325652
											}
										}
									}
								}
							}
							JOINT Left_Sleeve
							{
								OFFSET 6.592125 -0.646545 0.805568
								CHANNELS 3 Xrotation Yrotation Zrotation
								End Site
								{
									OFFSET -0.000179 20.275787 -0.000000
								}
							}
						}
					}
				}
				JOINT RightShoulder
				{
					OFFSET -5.731700 15.108002 -2.763700
					CHANNELS 3 Xrotation Yrotation Zrotation
					JOINT RightArm
					{
						OFFSET -9.825497 2.506317 -1.597400
						CHANNELS 3 Xrotation Yrotation Zrotation
						JOINT RightForeArm
						{
							OFFSET -21.966242 0.000000 0.000000
							CHANNELS 3 Xrotation Yrotation Zrotation
							JOINT RightHand
							{
								OFFSET -33.879032 0.000000 0.000000
								CHANNELS 3 Xrotation Yrotation Zrotation
								JOINT RightHandThumb1
								{
									OFFSET -6.715286 -2.359680 3.363841
									CHANNELS 3 Xrotation Yrotation Zrotation
									JOINT RightHandThumb2
									{
										OFFSET -2.507072 -1.447464 1.447461
										CHANNELS 3 Xrotation Yrotation Zrotation
										JOINT RightHandThumb3
										{
											OFFSET -2.898338 -1.673355 1.673357
											CHANNELS 3 Xrotation Yrotation Zrotation
											End Site
											{
												OFFSET 0.295959 3.727692 -0.131651
											}
										}
									}
								}
								JOINT RightHandIndex1
								{
									OFFSET -14.190811 -0.254547 3.840278
									CHANNELS 3 Xrotation Yrotation Zrotation
									JOINT RightHandIndex2
									{
										OFFSET -3.551727 0.000000 -0.000000
										CHANNELS 3 Xrotation Yrotation Zrotation
										JOINT RightHandIndex3
										{
											OFFSET -2.894196 0.000000 0.000000
											CHANNELS 3 Xrotation Yrotation Zrotation
											End Site
											{
												OFFSET 1.000603 2.690872 0.366626
											}
										}
									}
								}
								JOINT RightHandMiddle1
								{
									OFFSET -13.776489 0.000000 0.000000
									CHANNELS 3 Xrotation Yrotation Zrotation
									JOINT RightHandMiddle2
									{
										OFFSET -3.438232 0.000000 0.000000
										CHANNELS 3 Xrotation Yrotation Zrotation
										JOINT RightHandMiddle3
										{
											OFFSET -3.691551 0.000000 0.000000
											CHANNELS 3 Xrotation Yrotation Zrotation
											End Site
											{
												OFFSET 1.082298 3.499527 0.457670
											}
										}
									}
								}
								JOINT RightHandRing1
								{
									OFFSET -13.966164 -0.268127 -3.067488
									CHANNELS 3 Xrotation Yrotation Zrotation
									JOINT RightHandRing2
									{
										OFFSET -3.162567 0.000000 0.000000
										CHANNELS 3 Xrotation Yrotation Zrotation
										JOINT RightHandRing3
										{
											OFFSET -3.324348 0.000000 0.000000
											CHANNELS 3 Xrotation Yrotation Zrotation
											End Site
											{
												OFFSET 0.861900 3.184998 0.405154
											}
										}
									}
								}
								JOINT RightHandPinky1
								{
									OFFSET -13.131393 -0.168503 -5.746925
									CHANNELS 3 Xrotation Yrotation Zrotation
									JOINT RightHandPinky2
									{
										OFFSET -2.849182 0.000000 0.000000
										CHANNELS 3 Xrotation Yrotation Zrotation
										JOINT RightHandPinky3
										{
											OFFSET -2.805038 0.000000 0.000000
											CHANNELS 3 Xrotation Yrotation Zrotation
											End Site
											{
												OFFSET 0.882500 2.642609 0.325652
											}
										}
									}
								}
							}
							JOINT Right_Sleeve
							{
								OFFSET -6.592125 -0.646545 0.805568
								CHANNELS 3 Xrotation Yrotation Zrotation
								End Site
								{
									OFFSET 0.000179 20.275787 -0.000000
								}
							}
						}
					}
				}
				JOINT Bind_Right_JacketString
				{
					OFFSET -3.534800 11.969597 7.200700
					CHANNELS 3 Xrotation Yrotation Zrotation
					JOINT Bind_Right_JacketString1
					{
						OFFSET -0.319900 -6.102600 2.794100
						CHANNELS 3 Xrotation Yrotation Zrotation
						End Site
						{
							OFFSET 0.000000 6.719452 0.000000
						}
					}
				}
				JOINT Bind_Left_JacketString
				{
					OFFSET 2.904800 11.969597 7.200700
					CHANNELS 3 Xrotation Yrotation Zrotation
					JOINT Bind_Left_JacketString1
					{
						OFFSET 0.364800 -5.904503 3.186800
						CHANNELS 3 Xrotation Yrotation Zrotation
						End Site
						{
							OFFSET 0.000000 6.719513 0.000000
						}
					}
				}
				JOINT HairE
				{
					OFFSET 5.915200 17.612701 -11.592200
					CHANNELS 3 Xrotation Yrotation Zrotation
					JOINT HairE1
					{
						OFFSET 0.289200 -7.171898 -1.284500
						CHANNELS 3 Xrotation Yrotation Zrotation
						End Site
						{
							OFFSET 0.000000 7.291756 0.000000
						}
					}
				}
				JOINT HairF
				{
					OFFSET -0.864800 17.612701 -11.592200
					CHANNELS 3 Xrotation Yrotation Zrotation
					JOINT HairF1
					{
						OFFSET 0.000000 -14.087097 -2.127501
						CHANNELS 3 Xrotation Yrotation Zrotation
						End Site
						{
							OFFSET 0.000000 14.246841 0.000000
						}
					}
				}
				JOINT HairG
				{
					OFFSET -8.087700 17.612701 -11.592200
					CHANNELS 3 Xrotation Yrotation Zrotation
					JOINT HairG1
					{
						OFFSET -0.293600 -6.081398 -0.910100
						CHANNELS 3 Xrotation Yrotation Zrotation
						End Site
						{
							OFFSET 0.000000 6.156120 0.000000
						}
					}
				}
			}
		}
	}
	JOINT Pouch
	{
		OFFSET 0.000000 4.394501 10.847300
		CHANNELS 3 Xrotation Yrotation Zrotation
		End Site
		{
			OFFSET 0.000000 21.880577 0.000000
		}
	}
	JOINT Bag
	{
		OFFSET -13.229000 4.813004 -0.593300
		CHANNELS 3 Xrotation Yrotation Zrotation
		End Site
		{
			OFFSET 0.000000 21.880577 0.000000
		}
	}
	JOINT OccupyGuyFacialAnim_Joint
	{
		OFFSET 1.000000 -70.206398 -1.655000
		CHANNELS 3 Xrotation Yrotation Zrotation
		End Site
		{
			OFFSET 0.000000 21.880577 0.000000
		}
	}
}
MOTION
Frames: 5
Frame Time: 0.033333
-1.791268 67.974220 0.159130 61.470022 -74.005031 63.280118 -0.000000 0.000000 -0.000000 -37.053346 2.742294 -2.560985 27.079612 -0.744093 6.285734 -4.282536 0.729627 -5.801614 0.000000 -0.000001 -0.000000 -0.000003 0.000000 -0.000000 -39.540074 -4.104722 -9.033977 31.346928 3.380211 -0.529629 -6.577067 4.071971 3.583144 0.000000 -0.000000 -0.000000 0.000001 0.000000 -0.000001 7.271477 3.842542 3.540854 15.289353 3.854136 1.766495 15.405811 3.659868 1.723945 4.678238 0.459752 2.793885 11.261491 5.024057 3.541099 -0.000001 -0.000000 -0.000000 -0.000001 -0.000000 -0.000000 -0.000001 -0.000000 -0.000000 -0.000001 -0.000000 -0.000000 0.000001 0.000000 -0.000001 -0.000001 -0.000000 -0.000000 0.000001 0.000000 -0.000001 -0.000001 -0.000000 -0.000000 -0.000001 -0.000000 -0.000000 -9.646274 -28.238603 -17.811417 -14.420262 -17.168085 -66.290606 -0.000014 -58.231283 -0.000017 -44.126710 50.260466 35.857305 22.683948 -9.710990 16.381382 14.325280 5.146548 15.927053 -0.000003 0.000001 -0.000001 -2.027282 -0.228831 -27.723331 6.306170 5.833378 -94.469091 0.000004 0.000002 -0.000001 -3.966418 0.605952 -44.513009 5.625587 5.846726 -87.787615 -0.000001 0.000001 -0.000003 -1.331449 3.044837 -41.944045 6.438442 5.821629 -95.771253 -0.000001 -0.000001 0.000001 1.702403 6.564970 -34.170815 5.084578 5.800809 -82.459549 -0.000001 -0.000001 -0.000003 0.000000 -0.000004 0.000003 -2.652728 17.499595 21.524889 -40.318135 9.802242 65.452665 -0.000010 31.540393 0.000008 -26.594873 -31.515084 -2.564093 -4.440979 -21.447118 -23.896853 -16.211789 -13.732699 2.293513 -0.000000 -0.000002 0.000001 0.366277 -0.588000 -21.538527 2.962400 -4.338479 68.638716 -0.000000 -0.000000 0.000000 -2.954575 7.142570 17.079718 5.093479 -4.636737 95.381611 0.000001 -0.000000 -0.000004 -9.738645 10.402987 35.838071 4.502204 -4.654615 88.090951 0.000000 0.000000 0.000001 -7.600500 2.119350 49.874851 1.002099 -2.888082 38.264810 0.000000 0.000001 0.000001 0.000002 0.000003 0.000003 -0.000004 0.000000 0.000002 -0.000003 -0.000000 -0.000001 -0.000004 0.000000 -0.000000 -0.000004 0.000000 -0.000000 -0.000004 0.000000 0.000002 -0.000003 -0.000000 -0.000001 -0.000004 0.000000 -0.000000 -0.000004 0.000000 -0.000000 -0.000004 0.000000 0.000002 -0.000003 -0.000000 -0.000001 -0.000000 0.000000 -0.000000 -0.000000 0.000000 -0.000000 -0.000000 0.000000 -0.000000 
-1.786469 67.978989 0.189863 60.482315 -73.809722 62.415512 0.000000 -0.000000 -0.000000 -36.999695 2.662977 -2.859354 26.848813 -0.869038 6.341665 -4.139617 0.725527 -5.772478 -0.000000 0.000001 -0.000000 0.000001 0.000000 0.000000 -39.603766 -4.117007 -9.304061 31.451283 3.219110 -0.512101 -6.666130 4.059801 3.652491 0.000000 -0.000000 -0.000000 0.000001 0.000000 -0.000001 7.199068 4.111400 3.746562 15.278022 4.018748 1.791279 15.408179 3.805731 1.745654 4.667315 0.345239 2.807480 11.379571 4.489403 3.540035 0.000001 0.000001 -0.000000 0.000001 0.000001 -0.000000 0.000001 0.000001 0.000000 0.000001 0.000001 -0.000000 0.000003 0.000001 -0.000000 0.000001 0.000001 -0.000000 0.000003 0.000001 -0.000000 0.000001 0.000001 -0.000000 0.000001 0.000001 -0.000000 -9.570188 -28.208403 -17.628281 -14.615616 -17.346473 -66.350063 0.000011 -58.150981 0.000003 -43.723705 50.433745 35.737035 22.695921 -9.707028 16.355255 14.318787 5.134394 15.909862 0.000001 0.000002 0.000001 -2.024371 -0.225630 -27.712378 6.306247 5.833382 -94.469658 0.000002 0.000001 -0.000002 -3.957112 0.614059 -44.505151 5.625327 5.846692 -87.785143 0.000002 0.000001 -0.000001 -1.334170 3.042546 -41.950738 6.438744 5.821617 -95.774224 -0.000001 0.000002 0.000004 1.700786 6.563344 -34.148941 5.087170 5.801156 -82.485135 -0.000001 -0.000001 -0.000001 0.000002 0.000004 0.000000 -2.687760 17.617559 21.642713 -40.185076 9.819510 65.212426 -0.000008 31.830792 -0.000007 -27.194871 -31.397126 -2.689970 -4.428804 -21.500343 -23.897601 -16.208910 -13.724604 2.275501 -0.000001 -0.000002 -0.000000 0.359784 -0.604255 -21.617241 2.963386 -4.338855 68.651413 0.000001 -0.000001 0.000002 -2.948495 7.150756 17.037985 5.093516 -4.636730 95.381966 -0.000001 0.000000 -0.000001 -9.735741 10.401681 35.832689 4.503533 -4.654632 88.107555 0.000002 -0.000001 -0.000000 -7.626006 2.136742 49.892718 1.002009 -2.887991 38.262880 -0.000000 0.000001 -0.000001 -0.000002 -0.000001 -0.000002 -0.000002 0.000000 -0.000000 -0.000003 0.000002 0.000000 -0.000002 0.000000 -0.000001 -0.000002 0.000000 -0.000001 -0.000002 0.000000 -0.000000 -0.000003 0.000002 0.000000 -0.000002 0.000000 -0.000001 -0.000002 0.000000 -0.000001 -0.000002 0.000000 -0.000000 -0.000003 0.000002 0.000000 0.000000 -0.000000 -0.000000 0.000000 -0.000000 -0.000000 0.000000 -0.000000 -0.000000 
-1.783978 67.986168 0.219938 59.697151 -73.639350 61.727076 -0.000000 -0.000001 -0.000000 -36.949667 2.614667 -3.100051 26.639713 -0.995001 6.384296 -4.012613 0.722259 -5.738939 0.000000 0.000000 0.000000 -0.000002 0.000000 -0.000000 -39.647383 -4.135552 -9.530907 31.509544 3.093507 -0.492455 -6.728004 4.049862 3.711161 0.000000 -0.000000 0.000000 0.000002 0.000000 -0.000001 7.149755 4.325024 3.914191 15.278022 4.149315 1.811167 15.420096 3.918792 1.764622 4.650321 0.263516 2.826483 11.425671 4.127240 3.506814 0.000001 -0.000000 0.000000 0.000001 -0.000000 0.000000 0.000001 -0.000000 0.000000 0.000001 -0.000000 0.000000 0.000001 -0.000000 0.000000 0.000001 -0.000000 0.000000 0.000001 -0.000000 0.000000 0.000001 -0.000000 0.000000 0.000001 -0.000000 0.000000 -9.516155 -28.129255 -17.503990 -14.797690 -17.475536 -66.382294 -0.000021 -58.136221 -0.000015 -43.565535 50.584371 35.715640 22.715864 -9.686435 16.330777 14.324531 5.130048 15.886209 -0.000002 0.000001 -0.000000 -2.019488 -0.216820 -27.709290 6.305756 5.833406 -94.464945 -0.000000 0.000001 0.000000 -3.945793 0.627094 -44.510990 5.623631 5.846650 -87.768341 0.000001 0.000000 0.000001 -1.335504 3.043086 -41.968709 6.439131 5.821546 -95.778131 -0.000000 0.000002 0.000000 1.699684 6.562245 -34.134045 5.090718 5.801630 -82.520283 -0.000000 -0.000001 -0.000001 0.000003 -0.000003 0.000000 -2.716350 17.740728 21.716631 -40.177215 9.836937 65.063754 0.000005 32.032809 -0.000011 -27.511170 -31.416039 -2.791609 -4.418670 -21.564815 -23.899366 -16.202173 -13.715209 2.260678 -0.000000 -0.000003 0.000000 0.357690 -0.609402 -21.683580 2.962000 -4.338312 68.633463 -0.000000 0.000000 -0.000003 -2.934081 7.149614 16.968292 5.093652 -4.636712 95.383674 -0.000000 0.000000 -0.000001 -9.728145 10.408442 35.801560 4.504225 -4.654656 88.115786 0.000001 0.000000 -0.000002 -7.640063 2.150112 49.889440 1.002365 -2.888411 38.269977 -0.000003 0.000000 -0.000001 -0.000001 -0.000000 0.000001 -0.000000 0.000001 0.000001 -0.000000 0.000000 -0.000001 -0.000000 0.000001 0.000001 -0.000000 0.000001 0.000001 -0.000000 0.000001 0.000001 -0.000000 0.000000 -0.000001 -0.000000 0.000001 0.000001 -0.000000 0.000001 0.000001 -0.000000 0.000001 0.000001 -0.000000 0.000000 -0.000001 -0.000000 -0.000001 -0.000000 -0.000000 -0.000001 -0.000000 -0.000000 -0.000001 -0.000000 
-1.785339 67.993942 0.249116 59.064402 -73.498682 61.165881 0.000001 0.000001 -0.000000 -36.903731 2.601974 -3.279340 26.470924 -1.130991 6.403751 -3.910475 0.717729 -5.694579 0.000000 -0.000000 0.000000 0.000001 0.000000 -0.000000 -39.665180 -4.134794 -9.705724 31.541257 2.964994 -0.478587 -6.776294 4.043723 3.770472 0.000000 -0.000000 -0.000000 0.000000 -0.000000 -0.000000 7.112668 4.497966 4.057004 15.281262 4.259098 1.834948 15.433432 4.014845 1.787645 4.627449 0.215090 2.872795 11.421811 3.968269 3.473567 -0.000003 -0.000000 -0.000001 -0.000003 -0.000000 -0.000001 -0.000003 -0.000000 -0.000000 -0.000003 -0.000000 -0.000000 -0.000001 -0.000000 0.000001 -0.000003 -0.000000 -0.000000 -0.000001 -0.000000 0.000001 -0.000003 -0.000000 -0.000001 -0.000003 -0.000000 -0.000001 -9.471462 -28.051578 -17.402379 -15.029742 -17.505392 -66.505873 0.000002 -58.115675 -0.000002 -43.394992 50.754808 35.736308 22.733996 -9.669717 16.316781 14.331552 5.131813 15.869649 0.000000 0.000002 0.000001 -2.013170 -0.203738 -27.712369 6.305424 5.833443 -94.461530 -0.000000 0.000000 0.000002 -3.936701 0.638378 -44.519648 5.621172 5.846554 -87.744339 0.000001 0.000001 0.000001 -1.335493 3.046458 -41.998014 6.438968 5.821571 -95.776471 0.000001 0.000003 -0.000000 1.699360 6.561927 -34.129444 5.094497 5.802134 -82.557760 -0.000000 -0.000002 0.000003 0.000002 -0.000001 0.000001 -2.738180 17.811564 21.785133 -40.231331 9.852907 64.960208 0.000015 32.165130 -0.000017 -27.661945 -31.509951 -2.819571 -4.408351 -21.636683 -23.901368 -16.193993 -13.704056 2.243433 -0.000000 0.000001 0.000001 0.357168 -0.610468 -21.760598 2.959929 -4.337510 68.605569 -0.000000 -0.000001 0.000004 -2.915017 7.144807 16.880442 5.093722 -4.636730 95.384616 -0.000000 -0.000001 -0.000001 -9.717609 10.421293 35.752612 4.504357 -4.654685 88.117466 0.000001 0.000001 0.000001 -7.642404 2.159319 49.864629 1.002889 -2.889054 38.280236 -0.000001 -0.000001 0.000000 0.000000 0.000002 -0.000001 0.000001 0.000001 -0.000001 -0.000001 0.000000 0.000000 0.000001 0.000001 -0.000001 0.000001 0.000001 -0.000001 0.000001 0.000001 -0.000001 -0.000001 0.000000 0.000000 0.000001 0.000001 -0.000001 0.000001 0.000001 -0.000001 0.000001 0.000001 -0.000001 -0.000001 0.000000 0.000000 0.000001 0.000001 -0.000000 0.000001 0.000001 -0.000000 0.000001 0.000001 -0.000000 
-1.791302 68.000175 0.278798 58.532515 -73.386428 60.685999 0.000000 -0.000001 -0.000000 -36.862801 2.583533 -3.424039 26.349142 -1.238831 6.415190 -3.837088 0.714833 -5.654544 -0.000000 -0.000000 -0.000000 -0.000002 -0.000000 -0.000000 -39.669165 -4.149675 -9.853997 31.569698 2.870137 -0.465392 -6.823112 4.038262 3.820221 0.000000 -0.000000 0.000000 0.000001 0.000000 -0.000000 7.084952 4.637585 4.164587 15.287956 4.345522 1.849427 15.448016 4.090645 1.801741 4.620302 0.168397 2.933213 11.365296 3.814918 3.493860 -0.000000 -0.000000 0.000001 -0.000000 -0.000000 0.000001 -0.000000 -0.000000 0.000001 -0.000000 -0.000000 0.000001 0.000002 -0.000000 0.000001 -0.000000 -0.000000 0.000001 0.000002 -0.000000 0.000001 -0.000000 -0.000000 0.000001 -0.000000 -0.000000 0.000001 -9.376240 -28.002493 -17.170757 -15.335279 -17.504241 -66.763412 -0.000039 -58.048412 -0.000053 -43.207025 50.864327 35.768847 22.748736 -9.660956 16.312271 14.331711 5.130614 15.865693 0.000000 0.000003 0.000002 -2.003643 -0.182272 -27.724814 6.305393 5.833451 -94.461243 0.000002 0.000001 -0.000002 -3.932820 0.644061 -44.527444 5.618823 5.846461 -87.721206 0.000003 0.000000 0.000001 -1.334025 3.052484 -42.036297 6.437951 5.821675 -95.766499 -0.000000 0.000001 -0.000001 1.699599 6.562191 -34.133041 5.097978 5.802577 -82.592095 0.000000 0.000000 -0.000001 -0.000001 0.000000 -0.000001 -2.761590 17.861438 21.879780 -40.300421 9.842093 64.868205 -0.000002 32.269447 -0.000003 -27.748332 -31.625726 -2.777382 -4.392743 -21.711600 -23.900811 -16.188460 -13.689538 2.211831 -0.000000 0.000000 0.000001 0.353449 -0.619361 -21.879184 2.959381 -4.337302 68.598636 0.000000 0.000001 -0.000003 -2.899105 7.149979 16.794236 5.093559 -4.636727 95.382601 0.000001 0.000000 -0.000001 -9.707391 10.433091 35.706224 4.504302 -4.654685 88.116796 0.000001 -0.000002 0.000002 -7.644226 2.170459 49.831551 1.003050 -2.889283 38.283436 -0.000000 0.000002 -0.000001 -0.000001 0.000001 0.000001 -0.000004 0.000000 0.000000 -0.000002 0.000000 0.000000 -0.000004 0.000000 0.000000 -0.000004 0.000000 0.000000 -0.000004 0.000000 0.000000 -0.000002 0.000000 0.000000 -0.000004 0.000000 0.000000 -0.000004 0.000000 0.000000 -0.000004 0.000000 0.000000 -0.000002 0.000000 0.000000 0.000000 -0.000001 -0.000000 0.000000 -0.000001 -0.000000 0.000000 -0.000001 -0.000000 
